<svg width="23" height="22" viewBox="0 0 23 22" fill="none" xmlns="http://www.w3.org/2000/svg">
<path d="M20.3945 15.2482L20.3937 15.2474C19.9795 14.8301 19.3315 14.3687 18.7391 13.9854C18.1309 13.5919 17.5004 13.2294 17.0707 13.0127L17.0703 13.0125L17.0439 12.9992C16.8118 12.8822 16.5844 12.7677 16.3832 12.6855C16.1689 12.5981 15.8987 12.5099 15.587 12.5096C14.9702 12.5089 14.492 12.8649 14.1519 13.1181C14.1407 13.1264 14.1297 13.1346 14.1188 13.1427L14.1186 13.1429C14.049 13.1946 13.9826 13.2454 13.9239 13.2902L13.9149 13.2972C13.8519 13.3453 13.7986 13.3859 13.7479 13.4233C13.6447 13.4993 13.5788 13.5414 13.5297 13.567C13.4867 13.5894 13.4694 13.5921 13.4673 13.5924L13.4672 13.5924C13.4654 13.5927 13.4618 13.5932 13.4546 13.593C13.4471 13.5927 13.4321 13.5916 13.408 13.5864C13.2635 13.5556 12.8834 13.4053 12.3519 13.0743C11.8443 12.7581 11.2672 12.3196 10.7294 11.7835C10.1914 11.2473 9.7404 10.6601 9.41188 10.141C9.06611 9.59466 8.90994 9.20898 8.8806 9.07232C8.87564 9.04923 8.87468 9.03549 8.87449 9.02933C8.87431 9.02351 8.8747 9.02109 8.87483 9.02031L8.87484 9.0203C8.87499 9.01935 8.87567 9.01539 8.87868 9.00695C8.88185 8.99804 8.88803 8.98298 8.90001 8.96026C8.9262 8.91057 8.96898 8.84445 9.04632 8.73964C9.08241 8.69074 9.12083 8.64028 9.16623 8.58064L9.17407 8.57034C9.22124 8.50837 9.27465 8.4381 9.32949 8.36344L9.32953 8.36339C9.58567 8.01463 9.92976 7.54396 9.92873 6.91841C9.92824 6.62232 9.85212 6.36022 9.77177 6.14363C9.69312 5.9316 9.58289 5.69385 9.46891 5.44873L9.46852 5.4479C9.25554 4.991 8.88276 4.34836 8.48571 3.7446C8.0951 3.15063 7.62755 2.51211 7.21206 2.10314C7.02936 1.92269 6.86008 1.76269 6.70362 1.63982C6.55348 1.5219 6.33114 1.36913 6.04108 1.30372C5.71031 1.22914 5.43734 1.29866 5.26293 1.36201C5.18653 1.38976 5.11509 1.42173 5.07157 1.44121L5.07078 1.44156C5.06372 1.44472 5.05696 1.44775 5.05044 1.45067C5.00918 1.46917 4.97748 1.48337 4.94077 1.49862L4.94077 1.49861L4.93676 1.5003C4.50221 1.68309 4.08533 1.90533 3.69135 2.16423L3.69134 2.16422L3.68715 2.16701C2.93239 2.66845 2.39744 3.16461 2.03008 3.94962C1.56819 4.93662 1.62252 6.60997 3.02792 9.16307C4.41953 11.6912 5.42103 13.0173 7.44226 15.0329C9.47225 17.0572 11.0519 18.1576 13.3133 19.4259L13.3138 19.4262C14.7338 20.2215 15.8014 20.5914 16.6477 20.697C17.5406 20.8083 18.1302 20.6178 18.5434 20.4254L18.1211 19.5189L18.5434 20.4254C19.328 20.0599 19.8265 19.5305 20.3313 18.7721L20.3335 18.7688C20.5933 18.3751 20.8162 17.9584 20.9994 17.5238L21.0006 17.5209C21.0158 17.4845 21.03 17.4531 21.0484 17.4122C21.0514 17.4055 21.0545 17.3986 21.0578 17.3914L21.0581 17.3906C21.0777 17.3472 21.1098 17.2757 21.1378 17.1992C21.2016 17.0243 21.2714 16.7507 21.1963 16.4192C21.1305 16.129 20.9772 15.9067 20.8593 15.7569C20.7361 15.6005 20.5756 15.4311 20.3945 15.2482Z" stroke="currentColor" stroke-width="2" stroke-miterlimit="10"/>
</svg>
